<mxfile host="app.diagrams.net" modified="2020-10-06T02:32:13.712Z" agent="5.0 (X11)" etag="Q-0xHvXZCWLrMQWs6SVl" version="13.7.3" type="github">
  <diagram id="xfZM1j_6XeEADrha58gS" name="Page-1">
    <mxGraphModel dx="868" dy="455" grid="1" gridSize="10" guides="1" tooltips="1" connect="1" arrows="1" fold="1" page="1" pageScale="1" pageWidth="850" pageHeight="1100" math="0" shadow="0">
      <root>
        <mxCell id="0" />
        <mxCell id="1" parent="0" />
        <mxCell id="-4YfdLv9SygZFipSCHm--1" value="Supplier" style="swimlane;startSize=20;horizontal=0;" vertex="1" parent="1">
          <mxGeometry x="80" y="80" width="680" height="120" as="geometry" />
        </mxCell>
        <mxCell id="-4YfdLv9SygZFipSCHm--2" value="Toko Arthur" style="swimlane;html=1;childLayout=stackLayout;resizeParent=1;resizeParentMax=0;horizontal=0;startSize=20;horizontalStack=0;" vertex="1" parent="1">
          <mxGeometry x="80" y="240" width="670" height="390" as="geometry" />
        </mxCell>
        <mxCell id="-4YfdLv9SygZFipSCHm--4" value="Operator Gudang" style="swimlane;html=1;startSize=20;horizontal=0;" vertex="1" parent="-4YfdLv9SygZFipSCHm--2">
          <mxGeometry x="20" width="650" height="200" as="geometry" />
        </mxCell>
        <mxCell id="-4YfdLv9SygZFipSCHm--5" value="Admin" style="swimlane;html=1;startSize=20;horizontal=0;" vertex="1" parent="-4YfdLv9SygZFipSCHm--2">
          <mxGeometry x="20" y="200" width="650" height="190" as="geometry" />
        </mxCell>
      </root>
    </mxGraphModel>
  </diagram>
</mxfile>
